<svg width="30" height="18" viewBox="0 0 30 18" fill="none" xmlns="http://www.w3.org/2000/svg">
<path d="M18.0938 7.73438H9.5625V10.8281H14.6719C14.4844 12.1406 13.125 14.7188 9.5625 14.7188C6.51562 14.7188 3.98438 12.1875 3.98438 9C3.98438 5.85938 6.51562 3.32812 9.5625 3.32812C11.3438 3.32812 12.5156 4.07812 13.1719 4.73438L15.6094 2.39062C14.0156 0.890625 12 0 9.5625 0C4.59375 0 0.5625 4.03125 0.5625 9C0.5625 14.0156 4.59375 18 9.5625 18C14.7656 18 18.2344 14.3906 18.2344 9.23438C18.2344 8.625 18.1406 8.20312 18.0938 7.73438ZM26.7656 8.01562V5.4375H24.1406V8.01562H21.5156V10.6406H24.1406V13.2656H26.7656V10.6406H29.3906V8.01562H26.7656Z" fill="white"/>
</svg>
